<?xml version="1.0" encoding="UTF-8" standalone="no"?>
<!-- Created with Inkscape (http://www.inkscape.org/) -->

<svg
   xmlns:dc="http://purl.org/dc/elements/1.1/"
   xmlns:cc="http://creativecommons.org/ns#"
   xmlns:rdf="http://www.w3.org/1999/02/22-rdf-syntax-ns#"
   xmlns:svg="http://www.w3.org/2000/svg"
   xmlns="http://www.w3.org/2000/svg"
   xmlns:sodipodi="http://sodipodi.sourceforge.net/DTD/sodipodi-0.dtd"
   xmlns:inkscape="http://www.inkscape.org/namespaces/inkscape"
   version="1.1"
   id="svg2"
   xml:space="preserve"
   width="280"
   height="60"
   viewBox="0 0 280 60"
   sodipodi:docname="logo_ruptur.svg"
   inkscape:version="0.92.3 (2405546, 2018-03-11)"><metadata
     id="metadata8"><rdf:RDF><cc:Work
         rdf:about=""><dc:format>image/svg+xml</dc:format><dc:type
           rdf:resource="http://purl.org/dc/dcmitype/StillImage" /><dc:title></dc:title></cc:Work></rdf:RDF></metadata><defs
     id="defs6"><clipPath
       clipPathUnits="userSpaceOnUse"
       id="clipPath18"><path
         d="M 0,0 H 843.089 V 561.183 H 0 Z"
         id="path16"
         inkscape:connector-curvature="0" /></clipPath><linearGradient
       x1="0"
       y1="0"
       x2="1"
       y2="0"
       gradientUnits="userSpaceOnUse"
       gradientTransform="matrix(828.3197,-374.95367,-374.95367,-828.3197,24.353899,460.38712)"
       spreadMethod="pad"
       id="linearGradient32"><stop
         style="stop-opacity:1;stop-color:#009bdb"
         offset="0"
         id="stop24" /><stop
         style="stop-opacity:1;stop-color:#009bdb"
         offset="0.00507614"
         id="stop26" /><stop
         style="stop-opacity:1;stop-color:#72398e"
         offset="0.953743"
         id="stop28" /><stop
         style="stop-opacity:1;stop-color:#72398e"
         offset="1"
         id="stop30" /></linearGradient><clipPath
       clipPathUnits="userSpaceOnUse"
       id="clipPath42"><path
         d="M 0,561.183 H 843.09 V 0 H 0 Z"
         id="path40"
         inkscape:connector-curvature="0" /></clipPath></defs><sodipodi:namedview
     pagecolor="#ffffff"
     bordercolor="#666666"
     borderopacity="1"
     objecttolerance="10"
     gridtolerance="10"
     guidetolerance="10"
     inkscape:pageopacity="0"
     inkscape:pageshadow="2"
     inkscape:window-width="1366"
     inkscape:window-height="683"
     id="namedview4"
     showgrid="false"
     inkscape:zoom="1.225"
     inkscape:cx="224.38602"
     inkscape:cy="-42.319274"
     inkscape:window-x="0"
     inkscape:window-y="28"
     inkscape:window-maximized="1"
     inkscape:current-layer="g10"
     units="mm" /><g
     id="g10"
     inkscape:groupmode="layer"
     inkscape:label="Logos Ruptur OK"
     transform="matrix(1.3333333,0,0,-1.3333333,0,59.99998)"><g
       id="g1864"
       transform="matrix(0.42772216,0,0,0.42772216,-75.37731,-100.79449)"><g
         inkscape:export-ydpi="96"
         inkscape:export-xdpi="96"
         id="g12"><g
           clip-path="url(#clipPath18)"
           id="g14"><g
             id="g20"><g
               id="g22"><path
                 inkscape:connector-curvature="0"
                 id="path34"
                 style="fill:url(#linearGradient32);stroke:none"
                 d="M 0,0 H 843.089 V 561.183 H 0 Z" /></g></g></g></g><g
         id="g36"><g
           clip-path="url(#clipPath42)"
           id="g38"><g
             transform="translate(328.3752,268.866)"
             id="g44"><path
               inkscape:connector-curvature="0"
               id="path46"
               style="fill:#ffffff;fill-opacity:1;fill-rule:nonzero;stroke:none"
               d="m 0,0 v -6.792 c 0,-0.445 0.361,-0.807 0.807,-0.807 h 1.069 c 0.446,0 0.808,0.362 0.808,0.807 v 7.028 z" /></g><g
             transform="translate(383.1164,273.7)"
             id="g48"><path
               inkscape:connector-curvature="0"
               id="path50"
               style="fill:#ffffff;fill-opacity:1;fill-rule:nonzero;stroke:none"
               d="m 0,0 c -0.728,-3.096 -2.152,-5.694 -4.262,-7.767 -2.37,-2.33 -5.104,-3.51 -8.127,-3.51 -2.574,0 -4.796,0.865 -6.604,2.571 -1.808,1.762 -2.722,3.871 -2.722,6.273 v 0.516 l -2.581,-0.229 v -0.287 c 0,-3.002 1.181,-5.602 3.509,-7.729 h 10e-4 c 2.326,-2.127 5.151,-3.204 8.397,-3.204 2.604,0 4.997,0.637 7.115,1.893 2.168,1.311 3.763,3.057 4.739,5.186 l 0.759,1.657 v -6.996 c 0,-0.445 0.4,-0.807 0.894,-0.807 h 0.793 c 0.493,0 0.895,0.362 0.895,0.807 V 0.248 Z" /></g><g
             transform="translate(426.8888,277.5662)"
             id="g52"><path
               inkscape:connector-curvature="0"
               id="path54"
               style="fill:#ffffff;fill-opacity:1;fill-rule:nonzero;stroke:none"
               d="m 0,0 c -0.247,-4.236 -1.398,-7.763 -3.438,-10.495 -2.288,-3.084 -5.413,-4.649 -9.289,-4.649 -3.647,0 -6.772,1.678 -9.287,4.986 -1.776,2.284 -2.927,4.937 -3.468,7.908 l -3.038,-0.269 v -26.554 c 0,-0.447 0.381,-0.808 0.851,-0.808 h 0.97 c 0.47,0 0.85,0.361 0.85,0.808 v 21.814 l 0.719,-1.527 c 1.162,-2.473 2.901,-4.449 5.168,-5.875 2.27,-1.483 4.788,-2.233 7.492,-2.233 4.589,0 8.288,1.667 10.996,4.956 2.582,3.077 3.968,7.175 4.16,12.175 z" /></g><g
             transform="translate(443.4591,279.0301)"
             id="g56"><path
               inkscape:connector-curvature="0"
               id="path58"
               style="fill:#ffffff;fill-opacity:1;fill-rule:nonzero;stroke:none"
               d="m 0,0 v -11.668 c 0,-2.052 0.626,-3.8 1.862,-5.196 1.299,-1.461 2.794,-2.172 4.573,-2.172 0.481,0 1.134,0.128 1.95,0.382 0.341,0.106 0.579,0.418 0.579,0.775 0,0.499 -0.447,0.885 -0.939,0.793 -0.41,-0.077 -0.856,-0.116 -1.336,-0.116 -1.14,0 -2.097,0.567 -2.842,1.686 -0.77,1.064 -1.164,2.363 -1.164,3.848 V 0.236 Z" /></g><g
             transform="translate(488.9152,283.0447)"
             id="g60"><path
               inkscape:connector-curvature="0"
               id="path62"
               style="fill:#ffffff;fill-opacity:1;fill-rule:nonzero;stroke:none"
               d="m 0,0 v -8.225 c 0,-0.047 -0.004,-0.097 -0.013,-0.145 -0.641,-3.531 -2.144,-6.454 -4.472,-8.741 -2.37,-2.33 -5.105,-3.511 -8.127,-3.511 -2.575,0 -4.796,0.865 -6.605,2.571 -1.807,1.762 -2.721,3.871 -2.721,6.274 v 9.84 l -2.582,-0.229 v -9.611 c 0,-3.002 1.181,-5.603 3.509,-7.73 h 10e-4 c 2.326,-2.127 5.152,-3.204 8.398,-3.204 2.603,0 4.997,0.637 7.113,1.894 2.169,1.31 3.765,3.056 4.74,5.185 L 0,-13.975 v -6.996 c 0,-0.445 0.401,-0.806 0.895,-0.806 h 0.792 c 0.494,0 0.895,0.361 0.895,0.806 V 0.228 Z" /></g><g
             transform="translate(504.38,284.41)"
             id="g64"><path
               inkscape:connector-curvature="0"
               id="path66"
               style="fill:#ffffff;fill-opacity:1;fill-rule:nonzero;stroke:none"
               d="m 0,0 v -22.336 c 0,-0.445 0.361,-0.807 0.807,-0.807 h 1.069 c 0.445,0 0.807,0.362 0.807,0.807 V 0.237 Z" /></g><g
             transform="translate(519.0217,303.5692)"
             id="g68"><path
               inkscape:connector-curvature="0"
               id="path70"
               style="fill:#ffffff;fill-opacity:1;fill-rule:nonzero;stroke:none"
               d="m 0,0 c -3.823,0 -7.244,-2.616 -9.928,-7.58 v 2.013 c 0,1.34 -0.067,2.884 -0.201,5.432 L -22.74,-1.007 v -1.609 c 4.226,0 4.83,-0.805 4.83,-6.507 v -6.089 l 8.201,0.725 c 0.086,2.738 0.613,4.804 1.592,6.638 1.14,1.946 2.482,3.085 3.757,3.153 h 0.134 c 1.074,0 1.409,-0.469 1.946,-2.348 0.469,-1.542 1.341,-2.146 3.152,-2.146 2.817,0 4.83,1.677 4.83,4.092 C 5.702,-2.214 3.287,0 0,0" /></g><g
             transform="translate(307.2926,270.1776)"
             id="g72"><path
               inkscape:connector-curvature="0"
               id="path74"
               style="fill:#ffffff;fill-opacity:1;fill-rule:nonzero;stroke:none"
               d="m 0,0 c -0.365,0 -0.676,0.279 -0.708,0.649 -0.035,0.393 0.255,0.739 0.647,0.773 l 229.289,20.054 c 0.392,0.034 0.737,-0.255 0.772,-0.648 0.034,-0.391 -0.256,-0.737 -0.648,-0.771 L 0.063,0.003 C 0.042,0.001 0.021,0 0,0" /></g><g
             transform="translate(340.5856,303.5692)"
             id="g76"><path
               inkscape:connector-curvature="0"
               id="path78"
               style="fill:#ffffff;fill-opacity:1;fill-rule:nonzero;stroke:none"
               d="m 0,0 c -3.824,0 -7.245,-2.616 -9.928,-7.58 v 2.013 c 0,1.34 -0.067,2.884 -0.201,5.432 L -22.74,-1.007 v -1.609 c 4.226,0 4.83,-0.805 4.83,-6.507 v -18.581 c 0,-1.35 -0.028,-2.416 -0.118,-3.277 l 8.355,0.737 c -0.04,0.716 -0.054,1.546 -0.054,2.54 v 12.41 c 0,3.152 0.537,5.434 1.61,7.445 1.14,1.946 2.482,3.085 3.757,3.153 h 0.134 c 1.074,0 1.409,-0.469 1.945,-2.348 0.47,-1.542 1.342,-2.146 3.153,-2.146 2.817,0 4.83,1.677 4.83,4.092 C 5.702,-2.214 3.287,0 0,0" /></g><g
             transform="translate(370.6232,300.9529)"
             id="g80"><path
               inkscape:connector-curvature="0"
               id="path82"
               style="fill:#ffffff;fill-opacity:1;fill-rule:nonzero;stroke:none"
               d="m 0,0 c 2.817,-0.066 3.22,-0.201 3.891,-0.738 0.738,-0.738 1.005,-2.079 1.005,-5.769 v -10.598 c 0,-2.901 -0.22,-4.852 -0.788,-6.653 l 8.973,0.793 v 12.03 c 0,4.227 0,4.227 0.402,13.416 L 0,1.609 Z" /></g><g
             transform="translate(361.4328,281.701)"
             id="g84"><path
               inkscape:connector-curvature="0"
               id="path86"
               style="fill:#ffffff;fill-opacity:1;fill-rule:nonzero;stroke:none"
               d="m 0,0 v 1.274 l 0.067,7.111 c 0.068,5.97 0.202,8.519 0.537,13.348 l -13.483,-0.872 v -1.609 c 3.019,-0.066 3.555,-0.268 4.159,-1.074 0.536,-0.738 0.738,-2.213 0.738,-4.896 0,-0.201 -0.067,-0.336 -0.067,-0.537 L -8.184,-0.806 v -0.938 c 0,-1.874 0.089,-3.37 0.265,-4.636 L 0.26,-5.657 C 0.069,-4.334 0,-2.658 0,0" /></g><g
             transform="translate(412.9591,303.5692)"
             id="g88"><path
               inkscape:connector-curvature="0"
               id="path90"
               style="fill:#ffffff;fill-opacity:1;fill-rule:nonzero;stroke:none"
               d="m 0,0 c -4.562,0 -7.781,-1.543 -10.867,-5.3 v 5.165 l -13.08,-0.872 v -1.609 c 4.494,-0.067 5.097,-0.805 5.097,-6.507 v -15.539 l 8.063,0.712 c -0.14,1.387 -0.214,2.893 -0.214,4.563 0,10.734 3.354,17.241 8.855,17.241 4.762,0 7.311,-5.635 7.311,-16.368 0,-1.443 -0.049,-2.786 -0.14,-4.04 l 8.791,0.777 c 0.176,1.345 0.271,2.751 0.271,4.202 C 14.087,-6.373 8.988,0 0,0" /></g><g
             transform="translate(443.6896,313.4969)"
             id="g92"><path
               inkscape:connector-curvature="0"
               id="path94"
               style="fill:#ffffff;fill-opacity:1;fill-rule:nonzero;stroke:none"
               d="m 0,0 -3.354,-0.335 c -0.603,-3.353 -1.275,-5.3 -2.482,-7.178 -1.543,-2.415 -3.421,-3.422 -6.373,-3.555 v -2.013 h 3.823 v -17.871 l 8.185,0.723 v 17.148 h 8.116 v 2.146 H -0.201 C -0.201,-4.829 -0.134,-2.75 0,0" /></g><g
             transform="translate(475.8205,300.9529)"
             id="g96"><path
               inkscape:connector-curvature="0"
               id="path98"
               style="fill:#ffffff;fill-opacity:1;fill-rule:nonzero;stroke:none"
               d="m 0,0 c 2.818,-0.066 3.221,-0.201 3.892,-0.738 0.737,-0.738 1.005,-2.079 1.005,-5.769 v -7.889 l 8.184,0.722 v 2.739 c 0,4.227 0,4.227 0.403,13.416 L 0,1.609 Z" /></g><g
             transform="translate(458.4836,284.5926)"
             id="g100"><path
               inkscape:connector-curvature="0"
               id="path102"
               style="fill:#ffffff;fill-opacity:1;fill-rule:nonzero;stroke:none"
               d="m 0,0 8.17,0.722 0.045,4.771 c 0.067,5.971 0.201,8.52 0.536,13.349 L -4.731,17.97 v -1.61 c 3.017,-0.066 3.554,-0.267 4.158,-1.074 0.537,-0.737 0.738,-2.213 0.738,-4.895 0,-0.202 -0.067,-0.336 -0.067,-0.537 z" /></g></g></g></g></g></svg>